<?xml version="1.0" encoding="UTF-8" standalone="no"?>
<!DOCTYPE svg PUBLIC "-//W3C//DTD SVG 1.1//EN" "http://www.w3.org/Graphics/SVG/1.1/DTD/svg11.dtd">
<svg width="100%" height="100%" viewBox="0 0 24 104" version="1.1" xmlns="http://www.w3.org/2000/svg" xmlns:xlink="http://www.w3.org/1999/xlink" xml:space="preserve" xmlns:serif="http://www.serif.com/" style="fill-rule:evenodd;clip-rule:evenodd;stroke-linejoin:round;stroke-miterlimit:1.41421;">
    <g transform="matrix(1,0,0,1,-302,-126)">
        <g transform="matrix(0.750381,0,0,0.405634,-44.8597,-12)">
            <g id="Key-White-Middle-On" serif:id="Key White Middle On" transform="matrix(1.33266,0,0,2.46528,-435.966,-517.708)">
                <path d="M676,400L676,450L696,450L696,400L691,400L691,350L681,350L681,400L676,400" style="fill:url(#_Linear1);"/>
                <path d="M680,349L692,349L692,399L697,399L697,451L675,451L675,399L680,399L680,349ZM682,351L682,401L677,401L677,449L695,449L695,401L690,401L690,351L682,351Z" style="fill:rgb(33,31,36);"/>
            </g>
        </g>
    </g>
    <defs>
        <linearGradient id="_Linear1" x1="0" y1="0" x2="1" y2="0" gradientUnits="userSpaceOnUse" gradientTransform="matrix(6.12323e-15,100,-100,6.12323e-15,686,350)"><stop offset="0" style="stop-color:rgb(204,202,205);stop-opacity:1"/><stop offset="1" style="stop-color:rgb(92,83,75);stop-opacity:1"/></linearGradient>
    </defs>
</svg>
