<?xml version="1.0" encoding="UTF-8" standalone="no"?>
<!DOCTYPE svg PUBLIC "-//W3C//DTD SVG 1.1//EN" "http://www.w3.org/Graphics/SVG/1.1/DTD/svg11.dtd">
<svg width="100%" height="100%" viewBox="0 0 52 46" version="1.1" xmlns="http://www.w3.org/2000/svg" xmlns:xlink="http://www.w3.org/1999/xlink" xml:space="preserve" xmlns:serif="http://www.serif.com/" style="fill-rule:evenodd;clip-rule:evenodd;stroke-linecap:square;stroke-linejoin:round;stroke-miterlimit:1.5;">
    <g transform="matrix(1,0,0,1,-6,-9)">
        <g transform="matrix(1.06163,0,0,0.982301,-188.986,-115.134)">
            <g id="Markers-10" serif:id="Markers 10">
                <g transform="matrix(0.941947,0,0,1.01802,-0.0529423,0)">
                    <path d="M196.158,143.702L200.743,144.926" style="fill:none;stroke:rgb(175,174,176);stroke-width:1.5px;"/>
                </g>
                <g transform="matrix(0.851764,0.434677,-0.402196,0.920552,81.9831,-82.4696)">
                    <path d="M195.664,143.404L199.752,144.947" style="fill:none;stroke:rgb(175,174,176);stroke-width:1.5px;"/>
                </g>
                <g transform="matrix(0.458746,0.889128,-0.822688,0.495794,230.025,-117.826)">
                    <path d="M195.958,143.783L200.823,144.824" style="fill:none;stroke:rgb(175,174,176);stroke-width:1.5px;"/>
                </g>
                <g transform="matrix(0.81649,-0.507622,0.46969,0.882429,-42.5381,132.593)">
                    <path d="M195.679,143.682L200.34,144.773" style="fill:none;stroke:rgb(175,174,176);stroke-width:1.5px;"/>
                </g>
                <g transform="matrix(0.504481,-0.859706,0.795464,0.545222,-22.8012,261.175)">
                    <path d="M195.728,144.603L200.076,145.443" style="fill:none;stroke:rgb(175,174,176);stroke-width:1.5px;"/>
                </g>
                <g transform="matrix(-0.941947,0,0,1.01802,416.85,0.407207)">
                    <path d="M196.67,143.302L200.911,144.526" style="fill:none;stroke:rgb(175,174,176);stroke-width:1.5px;"/>
                </g>
                <g transform="matrix(-0.851764,0.434677,0.402196,0.920552,334.814,-82.0623)">
                    <path d="M196.032,142.788L200.19,144.297" style="fill:none;stroke:rgb(175,174,176);stroke-width:1.5px;"/>
                </g>
                <g transform="matrix(-0.458746,0.889128,0.822688,0.495794,186.772,-117.419)">
                    <path d="M196.01,142.869L200.786,144.07" style="fill:none;stroke:rgb(175,174,176);stroke-width:1.5px;"/>
                </g>
                <g transform="matrix(-0.81649,-0.507622,-0.46969,0.882429,459.335,133)">
                    <path d="M196.258,143.702L200.621,144.621" style="fill:none;stroke:rgb(175,174,176);stroke-width:1.5px;"/>
                </g>
                <g transform="matrix(-0.504481,-0.859706,-0.795464,0.545222,438.844,261.843)">
                    <path d="M196.064,144.148L200.454,145.054" style="fill:none;stroke:rgb(175,174,176);stroke-width:1.5px;"/>
                </g>
            </g>
        </g>
    </g>
</svg>
